<?xml version="1.0" encoding="utf-8"?>
<!-- Generator: Adobe Illustrator 24.2.1, SVG Export Plug-In . SVG Version: 6.00 Build 0)  -->
<svg version="1.1" id="Layer_1" xmlns="http://www.w3.org/2000/svg" xmlns:xlink="http://www.w3.org/1999/xlink" x="0px" y="0px"
	 viewBox="0 0 547.29 158.59" style="enable-background:new 0 0 547.29 158.59;" xml:space="preserve">
<style type="text/css">
	.st0{fill:none;stroke:#000000;stroke-width:2.1681;}
	.st1{stroke:#000000;stroke-width:0.542;}
	.st2{enable-background:new    ;}
	.st3{fill:url(#SVGID_1_);}
	.st4{fill:#62BB46;}
	.st5{fill:none;}
	.st6{fill:#FFFFFF;}
</style>
<g>
	<line class="st0" x1="301.97" y1="117.08" x2="537.61" y2="117.08"/>
	<line class="st0" x1="13.22" y1="117.08" x2="193.03" y2="117.08"/>
	<g>
		<g>
			<path d="M47.32,152.79V135.3l-14.34,17.49h-2.13l-14.58-17.38v17.38h-3.04v-19.94h4.84l13.73,16.67l13.8-16.67h4.74v19.94H47.32z
				"/>
			<path d="M54.41,152.79v-19.94h22.9v2.19H57.46v6.38H76.5v2.11H57.46v7.07h19.96v2.19H54.41z"/>
			<path d="M115.37,152.79V135.3l-14.34,17.49h-2.13l-14.58-17.38v17.38h-3.04v-19.94h4.84l13.73,16.67l13.8-16.67h4.74v19.94
				H115.37z"/>
			<path d="M152.51,145.21c-0.07,6.27-2.06,7.58-9.24,7.58h-13.06c-7.31,0-7.71-3.28-7.71-8.52c0-6.78-1.39-11.42,8.96-11.42h13.26
				c7,0,7.85,3.45,7.81,8.43L152.51,145.21z M149.46,141.31c0-6.75-1.73-6.32-9.34-6.32c-1.96,0-10.69-0.09-11.91,0.26
				c-2.57,0.74-2.67,2.17-2.67,4.19l-0.03,4.33c-0.07,6.87,1.45,6.89,9.17,6.89c2.47,0,4.94-0.06,7.41-0.06
				c6.43,0,7.38-0.8,7.38-6.27V141.31z"/>
			<path d="M182.68,152.79h-3.01v-2.76c0-3.19,0.37-5.18-4.19-5.18l-15.87,0.03v7.92h-3.04v-19.94h18.1c2.6,0,6.02,0.26,7.41,2.45
				c0.58,0.88,0.61,3.22,0.61,4.27c0,2.54-0.64,3.76-3.79,4.3c3.86,0.88,3.86,2.74,3.82,5.7L182.68,152.79z M174.96,135.04H159.6
				v7.66l15.09,0.03c3.59,0,4.97-0.6,4.97-3.73C179.66,135.9,178.65,135.04,174.96,135.04z"/>
			<path d="M186.9,152.79v-19.94h3.01v19.94H186.9z"/>
			<path d="M220.18,152.79l-3.08-4.42H198.4l-3.04,4.42h-3.42l13.6-19.94h4.06l14,19.94H220.18z M207.63,134.98l-7.85,11.34h15.63
				L207.63,134.98z"/>
			<path d="M225.25,152.79v-19.94h3.01v17.75h18.23v2.19H225.25z"/>
			<path class="st1" d="M305.57,152.79h-15.81c-10.38,0-12.95-2.02-12.95-8.77c0-2.91-0.77-7.09,2.65-9.32
				c2.69-1.77,7.69-1.85,11.28-1.85c3.5,0,7.01-0.06,10.51-0.06c9.14,0,14.01-0.26,14.01,6.98v0.29h-9.06
				c-0.21-2.93-4.06-2.36-7.43-2.36c-2.69,0-5.38,0.03-8.12,0.03c-1.75,0-3.25,0.14-4.14,1.28c-0.43,0.57-0.47,3.02-0.47,3.76
				c0,4.73,0.6,5.21,7.82,5.21c2.69,0,5.38-0.06,8.07-0.06c3.29,0,4.57-0.48,4.62-2.82h9.23
				C315.82,150.65,314.63,152.79,305.57,152.79z"/>
			<path class="st1" d="M324.97,152.79v-19.94h32.64v4.87h-23.5v3.16h22.26v4.02h-22.26v3.02h24.05v4.87H324.97z"/>
			<path class="st1" d="M393.5,152.79l-17.3-14.22v14.22h-9.1v-19.94h14.14l17.3,14.42v-14.42h9.19v19.94H393.5z"/>
			<path class="st1" d="M437.46,137.72v15.07h-9.1v-15.07h-12.73v-4.87h34.82v4.87H437.46z"/>
			<path class="st1" d="M490.18,144.98c4.83,1,4.96,2.68,4.96,5.73v2.08h-9.14v-1.34c0-2.31,0.3-3.65-3.76-3.82
				c-1.71-0.06-3.42-0.09-5.08-0.09c-3.12,0-6.24,0.06-9.31,0.06v5.18h-9.19v-19.94h27.56c7.86,0,9.06,2.48,9.06,7.18
				C495.27,142.88,494.28,143.96,490.18,144.98z M481.81,137.72h-13.97v4.79h13.71c2.69,0,4.83-0.17,4.83-2.34
				C486.38,138.03,484.67,137.72,481.81,137.72z"/>
			<path class="st1" d="M504.41,152.79v-19.94h32.64v4.87h-23.5v3.16h22.26v4.02h-22.26v3.02h24.05v4.87H504.41z"/>
		</g>
	</g>
	<g>
		<g>
			<g class="st2">
				<g>
					<linearGradient id="SVGID_1_" gradientUnits="userSpaceOnUse" x1="422.8548" y1="81.22" x2="422.8548" y2="81.22">
						<stop  offset="0" style="stop-color:#C9E4BA"/>
						<stop  offset="0.3652" style="stop-color:#62BB46"/>
						<stop  offset="0.8539" style="stop-color:#357729"/>
					</linearGradient>
					<rect x="422.85" y="80.1" class="st3" width="0" height="2.23"/>
				</g>
			</g>
		</g>
	</g>
	<g>
		<path class="st4" d="M247.81,7.68c-31.72,0-57.52,25.8-57.52,57.52c0,31.72,25.8,57.52,57.52,57.52
			c31.72,0,57.52-25.8,57.52-57.52C305.33,33.48,279.53,7.68,247.81,7.68z"/>
		<path d="M247.81,5.8c-32.75,0-59.4,26.65-59.4,59.4c0,32.76,26.65,59.4,59.4,59.4c32.75,0,59.4-26.65,59.4-59.4
			C307.21,32.44,280.56,5.8,247.81,5.8z M247.81,122.72c-31.72,0-57.52-25.8-57.52-57.52c0-31.72,25.8-57.52,57.52-57.52
			c31.72,0,57.52,25.8,57.52,57.52C305.33,96.92,279.53,122.72,247.81,122.72z"/>
	</g>
	<path d="M33.05,59.36c-5-1.62-5.97-2.38-5.97-3.15c0-0.38,0-1.54,3.45-1.54c3.13,0,7.03,1.21,9.34,2.34l1.06,0.52l2.99-12.85
		l-0.69-0.32c-2.7-1.25-7.66-2.59-13.48-2.59c-11.76,0-19.97,6.61-19.97,16.07c-0.05,3.74,1.65,10.57,13.56,14.35
		c4.84,1.54,5.07,2.09,5.07,2.93c0,0.47,0,1.45-3.82,1.45c-3.72,0-9.25-1.69-11.72-3.19l-1.1-0.68L8.57,86.03l0.65,0.34
		c3.9,2.01,9.68,3.21,15.48,3.21c12.98,0,21.04-5.99,21.04-15.64C45.68,66.81,41.64,62.18,33.05,59.36z M24.71,87.7
		c-5.19,0-10.34-1-13.96-2.68l2.25-9.44c2.98,1.45,7.95,2.86,11.58,2.86c1.56,0,5.7,0,5.7-3.33c0-2.44-1.94-3.31-6.38-4.72
		c-10.22-3.24-12.3-8.6-12.25-12.54c0-8.49,7.27-14.2,18.09-14.2c5.04,0,9.36,1.04,11.99,2.11l-2.11,9.08
		c-2.19-0.92-5.78-2.05-9.09-2.05c-4.4,0-5.33,1.86-5.33,3.42c0,2.22,2.14,3.28,7.27,4.94c7.82,2.56,11.34,6.51,11.4,12.79
		C43.87,82.56,36.71,87.7,24.71,87.7z"/>
	<g>
		<path class="st5" d="M65.93,73.27c0,2.73,1.97,3.31,3.62,3.31c1.77,0,3.98-1.27,4.62-3.4c0.14-0.51,0.16-1.26,0.16-1.99v-2.64
			C68.76,68.72,65.93,70.31,65.93,73.27z"/>
		<path class="st4" d="M77.87,86.76h12.62c-0.34-2.31-0.54-5.77-0.54-9.77V62.11c0-12.26-6.54-18.47-19.44-18.47
			c-8.63,0-14.47,2.25-17.09,3.53l2.3,8.35c2.88-1.42,7.32-2.85,11.82-2.85c6.75,0,8.17,2.55,8.17,4.7v1.34l-0.94,0
			c-9.2,0.01-24.63,2.13-24.63,16.15c0,6.4,4.68,12.88,13.62,12.88c5.01,0,8.87-1.52,11.48-4.53l0.28-0.32h1.5L77.87,86.76z
			 M76.22,71.19c0,0.86-0.03,1.76-0.24,2.51c-0.83,2.72-3.59,4.76-6.43,4.76c-3.39,0-5.5-1.99-5.5-5.19c0-3,1.95-6.59,11.23-6.62
			l0.94,0V71.19z"/>
		<path d="M92.53,87.51c-0.44-2.05-0.69-5.99-0.69-10.52V62.11c0-9.28-3.7-20.35-21.32-20.35c-9.88,0-16.33,2.86-18.64,4.09
			l-0.67,0.35l3.34,12.11l1.05-0.6c2.76-1.57,7.52-3.16,11.95-3.16c2.64,0,5.74,0.41,6.22,2.29c-16.22,0.28-25.5,6.82-25.5,18.02
			c0,8.42,6.66,14.76,15.5,14.76c4.99,0,8.98-1.39,11.9-4.14l0.69,3.16h16.41L92.53,87.51z M75.24,83.22
			c-2.61,3-6.47,4.53-11.48,4.53c-8.94,0-13.62-6.48-13.62-12.88c0-14.02,15.43-16.13,24.63-16.15l0.94,0v-1.34
			c0-2.14-1.42-4.7-8.17-4.7c-4.49,0-8.94,1.43-11.82,2.85l-2.3-8.35c2.62-1.28,8.46-3.53,17.09-3.53c12.9,0,19.44,6.21,19.44,18.47
			v14.87c0,4,0.19,7.47,0.54,9.77H77.87l-0.85-3.87h-1.5L75.24,83.22z"/>
		<path d="M64.05,73.27c0,3.2,2.11,5.19,5.5,5.19c2.84,0,5.6-2.03,6.43-4.76c0.21-0.75,0.24-1.65,0.24-2.51v-4.54l-0.94,0
			C66,66.68,64.05,70.27,64.05,73.27z M74.34,71.19c0,0.73-0.02,1.48-0.16,1.99c-0.65,2.13-2.86,3.4-4.62,3.4
			c-1.65,0-3.62-0.57-3.62-3.31c0-2.96,2.83-4.55,8.41-4.72V71.19z"/>
	</g>
	<g>
		<path class="st4" d="M123.81,44.63l-4.21,17.95c-0.73,3.23-1.28,6.23-1.89,10.34l-0.12,0.8h-1.93l-0.13-0.79
			c-0.52-3.23-1.13-6.72-2.04-10.34l-4.58-17.96H93.47l15,42.13h14.89l15.31-42.13H123.81z"/>
		<path d="M122.32,42.75l-4.55,19.41c-0.48,2.11-0.86,4.05-1.17,5.84c-0.36-1.9-0.77-3.86-1.27-5.86l-4.94-19.38H90.8l16.35,45.89
			h17.53l16.68-45.89H122.32z M108.47,86.76l-15-42.13h15.45l4.58,17.96c0.91,3.62,1.52,7.11,2.04,10.34l0.13,0.79h1.93l0.12-0.8
			c0.61-4.12,1.16-7.12,1.89-10.34l4.21-17.95h14.87l-15.31,42.13H108.47z"/>
	</g>
	<g>
		<path class="st5" d="M160.66,54.18c-3.65,0-5.27,2.99-5.79,5.32h11.03C165.69,57.71,164.75,54.18,160.66,54.18z"/>
		<path class="st4" d="M161.44,43.64c-16.05,0-21.87,13.47-21.87,22.52c0,13.68,8.49,21.53,23.3,21.53c5.94,0,10.99-0.8,15.41-2.43
			l-1.7-8.98c-3.49,0.98-7.13,1.44-11.34,1.44c-5.62,0-11.57-1.93-12.2-6.24l-0.16-1.08h27.52c0.21-1.22,0.41-3.12,0.41-5.18
			C180.81,51.71,173.57,43.64,161.44,43.64z M167.84,61.38h-15.1l0.1-1.03c0.37-3.88,2.98-8.05,7.83-8.05
			c5.67,0,7.18,5.12,7.18,8.14V61.38z"/>
		<path d="M161.44,41.76c-17.43,0-23.75,14.59-23.75,24.4c0,14.66,9.41,23.41,25.18,23.41c6.51,0,12.01-0.93,16.83-2.84l0.72-0.29
			l-2.38-12.58l-1.01,0.31c-3.62,1.13-7.36,1.66-11.79,1.66c-4.82,0-8.71-1.44-9.95-3.56h26.61l0.18-0.71
			c0.3-1.22,0.61-3.65,0.61-6.35C182.69,53.88,177.11,41.76,161.44,41.76z M180.41,70.41h-27.52l0.16,1.08
			c0.64,4.31,6.59,6.24,12.2,6.24c4.22,0,7.85-0.46,11.34-1.44l1.7,8.98c-4.42,1.63-9.48,2.43-15.41,2.43
			c-14.81,0-23.3-7.85-23.3-21.53c0-9.05,5.82-22.52,21.87-22.52c12.13,0,19.37,8.07,19.37,21.58
			C180.81,67.28,180.62,69.19,180.41,70.41z"/>
		<path d="M160.66,52.3c-4.85,0-7.45,4.17-7.83,8.05l-0.1,1.03h15.1v-0.94C167.84,57.41,166.33,52.3,160.66,52.3z M154.87,59.5
			c0.52-2.33,2.14-5.32,5.79-5.32c4.09,0,5.02,3.54,5.24,5.32H154.87z"/>
	</g>
	<g>
		<path class="st4" d="M325.65,28.43c-3.98,3.63-5.4,9.5-5.4,13.78v2.42h-5.68v9.93h5.68v32.21h14.27V54.56h7.9v-9.93h-8.03v-3.11
			c0-3.95,2.58-6.6,6.42-6.6c1.13,0,2.19,0.09,3.2,0.26l0.29-10.44c-2.02-0.41-4.09-0.6-6.46-0.6
			C335.01,24.14,329.68,24.7,325.65,28.43z"/>
		<path d="M345.47,23.07c-2.4-0.55-4.82-0.81-7.63-0.81c-3.1,0-8.96,0.62-13.45,4.78c-4.43,4.03-6.01,10.48-6.01,15.17v0.54h-5.68
			v13.69h5.68v32.21h18.03V56.44h7.9V42.75h-8.03v-1.23c0-2.28,1.19-4.72,4.54-4.72c1.4,0,2.68,0.15,3.88,0.44l1.13,0.28l0.39-14.28
			L345.47,23.07z M344.01,35.18c-1.01-0.17-2.07-0.26-3.2-0.26c-3.84,0-6.42,2.65-6.42,6.6v3.11h8.03v9.93h-7.9v32.21h-14.27V54.56
			h-5.68v-9.93h5.68v-2.42c0-4.28,1.42-10.15,5.4-13.78c4.03-3.73,9.36-4.29,12.18-4.29c2.37,0,4.44,0.19,6.46,0.6L344.01,35.18z"/>
	</g>
	<g>
		<path class="st5" d="M370.7,76.36c3.7,0,5.86-4,5.86-10.69c0-5.15-1.53-10.65-5.81-10.65c-5.73,0-6.17,8.15-6.17,10.65
			C364.57,68.89,365.17,76.36,370.7,76.36z"/>
		<path class="st4" d="M371.3,43.64c-14.14,0-23.28,8.78-23.28,22.36c0,13,9.02,21.74,22.45,21.74h0.09
			c10.48,0,22.72-5.89,22.72-22.5C393.29,52.32,384.45,43.64,371.3,43.64z M370.79,78.24c-5.1,0-8.09-4.7-8.09-12.57
			c0-7.84,3.01-12.53,8.05-12.53c4.75,0,7.69,4.8,7.69,12.53C378.44,73.54,375.58,78.24,370.79,78.24z"/>
		<path d="M371.3,41.76c-15.28,0-25.16,9.52-25.16,24.24c0,14.13,9.78,23.62,24.33,23.62h0.09c12.25,0,24.6-7.54,24.6-24.38
			C395.17,51.42,385.35,41.76,371.3,41.76z M370.57,87.74h-0.09c-13.43,0-22.45-8.74-22.45-21.74c0-13.59,9.14-22.36,23.28-22.36
			c13.15,0,21.99,8.68,21.99,21.6C393.29,81.85,381.05,87.74,370.57,87.74z"/>
		<path d="M370.74,53.15c-5.04,0-8.05,4.68-8.05,12.53c0,7.87,2.99,12.57,8.09,12.57c4.79,0,7.65-4.7,7.65-12.57
			C378.44,57.95,375.49,53.15,370.74,53.15z M370.74,55.03c4.29,0,5.81,5.5,5.81,10.65c0,6.69-2.16,10.69-5.86,10.69
			c-5.53,0-6.12-7.47-6.12-10.69C364.57,63.17,365.02,55.03,370.74,55.03z"/>
	</g>
	<g>
		<path class="st5" d="M421.65,76.36c3.7,0,5.86-4,5.86-10.69c0-5.15-1.53-10.65-5.81-10.65c-5.73,0-6.17,8.15-6.17,10.65
			C415.52,68.89,416.11,76.36,421.65,76.36z"/>
		<path class="st4" d="M422.25,43.64c-14.14,0-23.28,8.78-23.28,22.36c0,13,9.02,21.74,22.46,21.74h0.09
			c10.48,0,22.72-5.89,22.72-22.5C444.23,52.32,435.4,43.64,422.25,43.64z M421.74,78.24c-5.11,0-8.1-4.7-8.1-12.57
			c0-7.84,3.01-12.53,8.05-12.53c4.74,0,7.69,4.8,7.69,12.53C429.38,73.54,426.52,78.24,421.74,78.24z"/>
		<path d="M422.25,41.76c-15.29,0-25.16,9.52-25.16,24.24c0,14.13,9.78,23.62,24.34,23.62h0.09c12.24,0,24.6-7.54,24.6-24.38
			C446.11,51.42,436.3,41.76,422.25,41.76z M421.51,87.74h-0.09c-13.43,0-22.46-8.74-22.46-21.74c0-13.59,9.14-22.36,23.28-22.36
			c13.15,0,21.98,8.68,21.98,21.6C444.23,81.85,431.99,87.74,421.51,87.74z"/>
		<path d="M421.69,53.15c-5.04,0-8.05,4.68-8.05,12.53c0,7.87,2.99,12.57,8.1,12.57c4.79,0,7.64-4.7,7.64-12.57
			C429.38,57.95,426.43,53.15,421.69,53.15z M421.69,55.03c4.28,0,5.81,5.5,5.81,10.65c0,6.69-2.15,10.69-5.86,10.69
			c-5.53,0-6.13-7.47-6.13-10.69C415.52,63.17,415.96,55.03,421.69,55.03z"/>
	</g>
	<g>
		<path class="st5" d="M473.26,55.94c-6.39,0-6.89,7.39-6.89,9.66c0,5.84,2.55,9.33,6.82,9.33c2.67,0,4.88-1.85,5.38-4.49
			c0.2-0.9,0.23-1.96,0.23-2.78V62.7c0-0.62,0-1.33-0.1-1.92C478.25,58.38,476.39,55.94,473.26,55.94z"/>
		<path class="st4" d="M482.76,86.76h12.48c-0.15-2.97-0.3-7.93-0.3-12.97V25.12h-14.25v22.77h-1.61l-0.28-0.4
			c-1.72-2.48-5.3-3.84-10.07-3.84c-4.72,0-9.16,1.85-12.51,5.21c-4.1,4.12-6.25,10.04-6.21,17.13c0,12.61,7.49,21.77,17.8,21.77
			c2.61,0,9.04-0.63,12.48-6.47l0.27-0.46h1.56L482.76,86.76z M480.69,67.66c0,0.92-0.03,2.1-0.27,3.16
			c-0.67,3.51-3.64,5.99-7.22,5.99c-5.29,0-8.7-4.4-8.7-11.21c0-7.12,3.36-11.54,8.77-11.54c3.59,0,6.59,2.62,7.29,6.38
			c0.13,0.77,0.13,1.59,0.13,2.25V67.66z"/>
		<path d="M497.17,87.64c-0.17-2.73-0.36-8.23-0.36-13.85V23.24h-18.01v21.5c-2.3-1.93-5.78-2.98-10.08-2.98
			c-5.23,0-10.14,2.05-13.84,5.76c-4.46,4.48-6.8,10.86-6.76,18.46c0,13.7,8.28,23.64,19.68,23.64c5.31,0,9.85-1.98,12.78-5.51
			l0.49,4.53h16.16L497.17,87.64z M480.28,81.27c-3.44,5.84-9.87,6.47-12.48,6.47c-10.31,0-17.8-9.15-17.8-21.77
			c-0.03-7.09,2.11-13.01,6.21-17.13c3.34-3.36,7.78-5.21,12.51-5.21c4.78,0,8.35,1.37,10.07,3.84l0.28,0.4h1.61V25.12h14.25v48.67
			c0,5.04,0.15,10,0.3,12.97h-12.48l-0.65-5.95h-1.56L480.28,81.27z"/>
		<path d="M473.26,54.06c-5.41,0-8.77,4.42-8.77,11.54c0,6.81,3.42,11.21,8.7,11.21c3.58,0,6.56-2.48,7.22-5.99
			c0.24-1.05,0.27-2.24,0.27-3.16V62.7c0-0.66,0-1.49-0.13-2.25C479.85,56.69,476.85,54.06,473.26,54.06z M478.81,67.66
			c0,0.82-0.03,1.87-0.23,2.78c-0.5,2.64-2.72,4.49-5.38,4.49c-4.27,0-6.82-3.49-6.82-9.33c0-2.27,0.5-9.66,6.89-9.66
			c3.13,0,4.99,2.43,5.44,4.83c0.1,0.59,0.1,1.3,0.1,1.92V67.66z"/>
	</g>
	<g>
		<path class="st4" d="M525.43,61.15c-5.12-1.66-7.27-2.72-7.27-4.94c0-1.56,0.92-3.42,5.32-3.42c3.32,0,6.9,1.13,9.09,2.05
			l2.12-9.08c-2.63-1.07-6.96-2.11-11.99-2.11c-10.82,0-18.1,5.71-18.1,14.2c-0.05,3.94,2.04,9.3,12.25,12.54
			c4.43,1.41,6.38,2.28,6.38,4.72c0,3.33-4.14,3.33-5.7,3.33c-3.63,0-8.6-1.41-11.58-2.86l-2.25,9.44
			c3.62,1.68,8.77,2.68,13.96,2.68c12,0,19.16-5.14,19.16-13.75C536.78,67.66,533.26,63.71,525.43,61.15z"/>
		<path d="M526.02,59.36c-4.99-1.62-5.97-2.38-5.97-3.15c0-0.38,0-1.54,3.44-1.54c3.13,0,7.03,1.21,9.34,2.34l1.06,0.52l3-12.85
			l-0.69-0.32c-2.7-1.25-7.67-2.59-13.48-2.59c-11.76,0-19.98,6.61-19.98,16.07c-0.05,3.74,1.65,10.57,13.56,14.35
			c4.83,1.54,5.06,2.09,5.06,2.93c0,0.47,0,1.45-3.82,1.45c-3.72,0-9.26-1.69-11.72-3.19l-1.11-0.68l-3.18,13.34l0.65,0.34
			c3.89,2.01,9.68,3.21,15.48,3.21c12.98,0,21.05-5.99,21.05-15.64C538.65,66.81,534.61,62.18,526.02,59.36z M517.68,87.7
			c-5.19,0-10.34-1-13.96-2.68l2.25-9.44c2.98,1.45,7.95,2.86,11.58,2.86c1.56,0,5.7,0,5.7-3.33c0-2.44-1.94-3.31-6.38-4.72
			c-10.22-3.24-12.3-8.6-12.25-12.54c0-8.49,7.27-14.2,18.1-14.2c5.04,0,9.36,1.04,11.99,2.11l-2.12,9.08
			c-2.19-0.92-5.77-2.05-9.09-2.05c-4.4,0-5.32,1.86-5.32,3.42c0,2.22,2.14,3.28,7.27,4.94c7.83,2.56,11.35,6.51,11.41,12.79
			C536.84,82.56,529.68,87.7,517.68,87.7z"/>
	</g>
	<g>
		<path class="st5" d="M220.82,76.36c3.7,0,5.86-4,5.86-10.69c0-5.15-1.53-10.65-5.81-10.65c-5.72,0-6.17,8.15-6.17,10.65
			C214.69,68.89,215.29,76.36,220.82,76.36z"/>
		<path class="st6" d="M221.42,43.64c-14.14,0-23.28,8.78-23.28,22.36c0,13,9.02,21.74,22.46,21.74h0.09
			c10.48,0,22.72-5.89,22.72-22.5C243.41,52.32,234.57,43.64,221.42,43.64z M220.91,78.24c-5.1,0-8.1-4.7-8.1-12.57
			c0-7.84,3.01-12.53,8.05-12.53c4.75,0,7.7,4.8,7.7,12.53C228.56,73.54,225.7,78.24,220.91,78.24z"/>
		<path d="M221.42,41.76c-15.29,0-25.16,9.52-25.16,24.24c0,14.13,9.78,23.62,24.34,23.62h0.09c12.25,0,24.6-7.54,24.6-24.38
			C245.29,51.42,235.47,41.76,221.42,41.76z M220.68,87.74h-0.09c-13.43,0-22.46-8.74-22.46-21.74c0-13.59,9.14-22.36,23.28-22.36
			c13.15,0,21.98,8.68,21.98,21.6C243.41,81.85,231.17,87.74,220.68,87.74z"/>
		<path d="M220.86,53.15c-5.04,0-8.05,4.68-8.05,12.53c0,7.87,2.99,12.57,8.1,12.57c4.79,0,7.65-4.7,7.65-12.57
			C228.56,57.95,225.61,53.15,220.86,53.15z M220.86,55.03c4.29,0,5.81,5.5,5.81,10.65c0,6.69-2.16,10.69-5.86,10.69
			c-5.53,0-6.13-7.47-6.13-10.69C214.69,63.17,215.14,55.03,220.86,55.03z"/>
		<path class="st6" d="M278.27,43.64c-7.26,0-11.11,4.34-12.43,6.2l-0.28,0.4h-1.62l-0.72-5.61h-12.1
			c0.15,3.43,0.31,8.33,0.31,14.04v28.09h14.27V62.78c0-1.63,0.17-2.82,0.53-3.62c1.28-2.94,3.35-4.43,6.16-4.43
			c2.44,0,6.53,1.17,6.53,8.99v23.04h14.27V61.74C293.18,50.07,287.89,43.64,278.27,43.64z"/>
		<path d="M278.27,41.76c-6.6,0-10.7,3.22-12.81,5.56l-0.58-4.57h-15.72l0.04,0.98c0.15,3.42,0.36,8.7,0.36,14.94v29.97h18.03V62.78
			c0-1.68,0.2-2.48,0.37-2.87c0.98-2.25,2.39-3.3,4.44-3.3c1.15,0,4.65,0,4.65,7.11v24.92h18.03V61.74
			C295.06,49.04,288.94,41.76,278.27,41.76z M293.18,86.76h-14.27V63.73c0-7.82-4.09-8.99-6.53-8.99c-2.81,0-4.89,1.49-6.16,4.43
			c-0.36,0.8-0.53,1.99-0.53,3.62v23.98h-14.27V58.67c0-5.71-0.17-10.61-0.31-14.04h12.1l0.72,5.61h1.62l0.28-0.4
			c1.32-1.86,5.17-6.2,12.43-6.2c9.62,0,14.92,6.43,14.92,18.09V86.76z"/>
	</g>
	<path class="st4" d="M32.47,61.15c-5.13-1.66-7.27-2.72-7.27-4.94c0-1.56,0.92-3.42,5.33-3.42c3.32,0,6.9,1.13,9.09,2.05l2.11-9.08
		c-2.63-1.07-6.95-2.11-11.99-2.11c-10.82,0-18.09,5.71-18.09,14.2c-0.05,3.94,2.03,9.3,12.25,12.54c4.44,1.41,6.38,2.28,6.38,4.72
		c0,3.33-4.14,3.33-5.7,3.33c-3.63,0-8.6-1.41-11.58-2.86l-2.25,9.44c3.62,1.68,8.77,2.68,13.96,2.68c12,0,19.16-5.14,19.16-13.75
		C43.8,67.66,40.29,63.71,32.47,61.15z"/>
</g>
</svg>
